<svg width="123" height="136" viewBox="0 0 123 136" fill="none" xmlns="http://www.w3.org/2000/svg">
<ellipse cx="61.5" cy="67.5" rx="14.8444" ry="14.32" fill="#FF4742"/>
<ellipse cx="90.8444" cy="51.32" rx="14.8444" ry="14.32" fill="#FF4742"/>
<ellipse cx="31.8444" cy="50.32" rx="14.8444" ry="14.32" fill="#FF4742"/>
<path d="M68.8444 7.16C68.8444 11.1144 65.5214 14.32 61.4222 14.32C57.323 14.32 54 11.1144 54 7.16C54 3.20564 57.323 0 61.4222 0C65.5214 0 68.8444 3.20564 68.8444 7.16Z" fill="#FF4742"/>
<ellipse cx="115.422" cy="37.16" rx="7.42222" ry="7.16" fill="#FF4742"/>
<ellipse cx="115.422" cy="98.16" rx="7.42222" ry="7.16" fill="#FF4742"/>
<ellipse cx="61.4222" cy="128.16" rx="7.42222" ry="7.16" fill="#FF4742"/>
<ellipse cx="7.42222" cy="98.16" rx="7.42222" ry="7.16" fill="#FF4742"/>
<ellipse cx="30.4222" cy="114.16" rx="7.42222" ry="7.16" fill="#FF4742"/>
<ellipse cx="91.4222" cy="114.16" rx="7.42222" ry="7.16" fill="#FF4742"/>
<ellipse cx="92.4222" cy="21.16" rx="7.42222" ry="7.16" fill="#FF4742"/>
<ellipse cx="30.4222" cy="21.16" rx="7.42222" ry="7.16" fill="#FF4742"/>
<ellipse cx="7.42222" cy="68.16" rx="7.42222" ry="7.16" fill="#FF4742"/>
<ellipse cx="115.422" cy="68.16" rx="7.42222" ry="7.16" fill="#FF4742"/>
<ellipse cx="7.42222" cy="37.16" rx="7.42222" ry="7.16" fill="#FF4742"/>
<ellipse cx="31.8444" cy="83.32" rx="14.8444" ry="14.32" fill="#FF4742"/>
<ellipse cx="90.8444" cy="83.32" rx="14.8444" ry="14.32" fill="#FF4742"/>
<ellipse cx="60.8444" cy="101.32" rx="14.8444" ry="14.32" fill="#FF4742"/>
<ellipse cx="61.5" cy="33.75" rx="14.8444" ry="14.32" fill="#FF4742"/>
</svg>
